<?xml version="1.0" encoding="UTF-8" standalone="no"?>

<svg
   width="144"
   height="144"
   viewBox="0 0 38.1 38.1"
   version="1.1"
   id="svg1"
   xml:space="preserve"
   xmlns:xlink="http://www.w3.org/1999/xlink"
   xmlns="http://www.w3.org/2000/svg"
   xmlns:svg="http://www.w3.org/2000/svg">
   <g id="layer1">
   <path
       style="fill:none;stroke:#222a68;stroke-width:1;stroke-linecap:round;stroke-linejoin:round;stroke-dasharray:none;stroke-opacity:1"
       d="m 16.098051,11.033495 c 1.262799,0.914079 -1.406806,2.650053 -0.271316,4.883679 1.13549,2.233626 3.992725,1.947289 5.38109,0.361755 1.388365,-1.585534 -0.877106,-3.999299 0.09044,-4.974117 0.967546,-0.974818 6.403703,-1.065516 7.370735,-0.04522 0.967032,1.020297 -0.901436,5.610132 0.135661,6.55679 1.037097,0.946658 3.577756,-1.153747 5.29065,-0.406973 1.712895,0.746774 2.084955,5.285812 -0.09044,6.240256 -2.175394,0.954443 -4.911582,-2.160364 -5.833281,-0.361754 -0.921699,1.798609 1.045407,4.97007 -0.04522,6.014161 -1.090627,1.044091 -6.085034,1.185474 -6.782887,0.09044 -0.697853,-1.095034 0.731215,-3.730352 -0.09044,-5.200212 -0.821654,-1.46986 -3.723492,-1.88779 -5.154994,0.271317 -1.431502,2.159107 1.368286,3.889117 0.316533,4.928899 C 15.36283,30.432298 9.8265661,30.507496 9.2247247,29.61861 8.6228834,28.729724 9.6280408,24.095309 8.6820943,22.971379 7.7361477,21.847449 5.3490387,24.386657 3.3462235,22.790504 1.3434082,21.194351 1.7326638,18.321292 3.7984164,16.95722 5.864169,15.593148 7.661955,18.117832 8.8177525,17.00244 9.97355,15.887048 8.4187163,11.77291 9.2247257,10.897837 10.030735,10.022764 14.835252,10.119416 16.098051,11.033495 Z"
       id="path1" /></g></svg>
